%TF.GenerationSoftware,KiCad,Pcbnew,9.0.6*%
%TF.CreationDate,2025-12-21T15:01:31-05:00*%
%TF.ProjectId,olyntia,6f6c796e-7469-4612-9e6b-696361645f70,rev?*%
%TF.SameCoordinates,Original*%
%TF.FileFunction,Soldermask,Top*%
%TF.FilePolarity,Negative*%
%FSLAX46Y46*%
G04 Gerber Fmt 4.6, Leading zero omitted, Abs format (unit mm)*
G04 Created by KiCad (PCBNEW 9.0.6) date 2025-12-21 15:01:31*
%MOMM*%
%LPD*%
G01*
G04 APERTURE LIST*
G04 Aperture macros list*
%AMRoundRect*
0 Rectangle with rounded corners*
0 $1 Rounding radius*
0 $2 $3 $4 $5 $6 $7 $8 $9 X,Y pos of 4 corners*
0 Add a 4 corners polygon primitive as box body*
4,1,4,$2,$3,$4,$5,$6,$7,$8,$9,$2,$3,0*
0 Add four circle primitives for the rounded corners*
1,1,$1+$1,$2,$3*
1,1,$1+$1,$4,$5*
1,1,$1+$1,$6,$7*
1,1,$1+$1,$8,$9*
0 Add four rect primitives between the rounded corners*
20,1,$1+$1,$2,$3,$4,$5,0*
20,1,$1+$1,$4,$5,$6,$7,0*
20,1,$1+$1,$6,$7,$8,$9,0*
20,1,$1+$1,$8,$9,$2,$3,0*%
G04 Aperture macros list end*
%ADD10RoundRect,0.237500X-0.237500X0.300000X-0.237500X-0.300000X0.237500X-0.300000X0.237500X0.300000X0*%
%ADD11RoundRect,0.237500X0.237500X-0.300000X0.237500X0.300000X-0.237500X0.300000X-0.237500X-0.300000X0*%
%ADD12R,1.700000X1.700000*%
%ADD13RoundRect,0.250000X-0.412500X-0.650000X0.412500X-0.650000X0.412500X0.650000X-0.412500X0.650000X0*%
%ADD14RoundRect,0.237500X0.237500X-0.250000X0.237500X0.250000X-0.237500X0.250000X-0.237500X-0.250000X0*%
%ADD15RoundRect,0.150000X-0.825000X-0.150000X0.825000X-0.150000X0.825000X0.150000X-0.825000X0.150000X0*%
%ADD16RoundRect,0.237500X0.300000X0.237500X-0.300000X0.237500X-0.300000X-0.237500X0.300000X-0.237500X0*%
%ADD17RoundRect,0.237500X-0.300000X-0.237500X0.300000X-0.237500X0.300000X0.237500X-0.300000X0.237500X0*%
%ADD18RoundRect,0.237500X-0.237500X0.250000X-0.237500X-0.250000X0.237500X-0.250000X0.237500X0.250000X0*%
%ADD19RoundRect,0.237500X0.250000X0.237500X-0.250000X0.237500X-0.250000X-0.237500X0.250000X-0.237500X0*%
%ADD20RoundRect,0.237500X-0.250000X-0.237500X0.250000X-0.237500X0.250000X0.237500X-0.250000X0.237500X0*%
%ADD21RoundRect,0.250000X0.350000X0.450000X-0.350000X0.450000X-0.350000X-0.450000X0.350000X-0.450000X0*%
%ADD22RoundRect,0.250000X0.650000X-0.412500X0.650000X0.412500X-0.650000X0.412500X-0.650000X-0.412500X0*%
G04 APERTURE END LIST*
D10*
%TO.C,C9*%
X86200000Y-109400000D03*
X86200000Y-111125000D03*
%TD*%
D11*
%TO.C,C10*%
X84810600Y-104800400D03*
X84810600Y-103075400D03*
%TD*%
D12*
%TO.C,ADC1*%
X67763000Y-105237000D03*
%TD*%
D13*
%TO.C,C6*%
X100314466Y-104825800D03*
X103439466Y-104825800D03*
%TD*%
D12*
%TO.C,GND*%
X97409000Y-101066600D03*
%TD*%
D14*
%TO.C,R5*%
X71018400Y-111226600D03*
X71018400Y-109401600D03*
%TD*%
D11*
%TO.C,C4*%
X86487000Y-104800400D03*
X86487000Y-103075400D03*
%TD*%
D14*
%TO.C,R6*%
X88442800Y-112141000D03*
X88442800Y-110316000D03*
%TD*%
D15*
%TO.C,U2*%
X77525000Y-108093700D03*
X77525000Y-109363700D03*
X77525000Y-110633700D03*
X77525000Y-111903700D03*
X82475000Y-111903700D03*
X82475000Y-110633700D03*
X82475000Y-109363700D03*
X82475000Y-108093700D03*
%TD*%
D16*
%TO.C,C1*%
X73200000Y-101500000D03*
X71475000Y-101500000D03*
%TD*%
D12*
%TO.C,+5V_IN*%
X97409000Y-104825800D03*
%TD*%
D15*
%TO.C,U1*%
X77525000Y-102210900D03*
X77525000Y-103480900D03*
X77525000Y-104750900D03*
X77525000Y-106020900D03*
X82475000Y-106020900D03*
X82475000Y-104750900D03*
X82475000Y-103480900D03*
X82475000Y-102210900D03*
%TD*%
D17*
%TO.C,C3*%
X71293600Y-106750800D03*
X73018600Y-106750800D03*
%TD*%
D12*
%TO.C,RE*%
X71043800Y-113995200D03*
%TD*%
%TO.C,WE*%
X79625000Y-97200000D03*
%TD*%
D18*
%TO.C,R4*%
X72821800Y-109376200D03*
X72821800Y-111201200D03*
%TD*%
D17*
%TO.C,C7*%
X100317524Y-106858068D03*
X102042524Y-106858068D03*
%TD*%
D19*
%TO.C,R8*%
X92376000Y-104825800D03*
X90551000Y-104825800D03*
%TD*%
D14*
%TO.C,R1*%
X82475821Y-99025000D03*
X82475821Y-97200000D03*
%TD*%
D17*
%TO.C,C5*%
X91800000Y-113800000D03*
X93525000Y-113800000D03*
%TD*%
D20*
%TO.C,R2*%
X71318000Y-105200000D03*
X73143000Y-105200000D03*
%TD*%
D21*
%TO.C,R3*%
X73200000Y-103400000D03*
X71200000Y-103400000D03*
%TD*%
D10*
%TO.C,C8*%
X84600000Y-109400000D03*
X84600000Y-111125000D03*
%TD*%
D18*
%TO.C,R7*%
X90087500Y-110287500D03*
X90087500Y-112112500D03*
%TD*%
D22*
%TO.C,C2*%
X88493600Y-104800400D03*
X88493600Y-101675400D03*
%TD*%
M02*
