%TF.GenerationSoftware,KiCad,Pcbnew,9.0.6*%
%TF.CreationDate,2025-12-21T15:01:31-05:00*%
%TF.ProjectId,olyntia,6f6c796e-7469-4612-9e6b-696361645f70,rev?*%
%TF.SameCoordinates,Original*%
%TF.FileFunction,Legend,Top*%
%TF.FilePolarity,Positive*%
%FSLAX46Y46*%
G04 Gerber Fmt 4.6, Leading zero omitted, Abs format (unit mm)*
G04 Created by KiCad (PCBNEW 9.0.6) date 2025-12-21 15:01:31*
%MOMM*%
%LPD*%
G01*
G04 APERTURE LIST*
%ADD10C,0.150000*%
%ADD11C,0.125000*%
%ADD12C,0.120000*%
G04 APERTURE END LIST*
D10*
X86233333Y-108359580D02*
X86185714Y-108407200D01*
X86185714Y-108407200D02*
X86042857Y-108454819D01*
X86042857Y-108454819D02*
X85947619Y-108454819D01*
X85947619Y-108454819D02*
X85804762Y-108407200D01*
X85804762Y-108407200D02*
X85709524Y-108311961D01*
X85709524Y-108311961D02*
X85661905Y-108216723D01*
X85661905Y-108216723D02*
X85614286Y-108026247D01*
X85614286Y-108026247D02*
X85614286Y-107883390D01*
X85614286Y-107883390D02*
X85661905Y-107692914D01*
X85661905Y-107692914D02*
X85709524Y-107597676D01*
X85709524Y-107597676D02*
X85804762Y-107502438D01*
X85804762Y-107502438D02*
X85947619Y-107454819D01*
X85947619Y-107454819D02*
X86042857Y-107454819D01*
X86042857Y-107454819D02*
X86185714Y-107502438D01*
X86185714Y-107502438D02*
X86233333Y-107550057D01*
X86709524Y-108454819D02*
X86900000Y-108454819D01*
X86900000Y-108454819D02*
X86995238Y-108407200D01*
X86995238Y-108407200D02*
X87042857Y-108359580D01*
X87042857Y-108359580D02*
X87138095Y-108216723D01*
X87138095Y-108216723D02*
X87185714Y-108026247D01*
X87185714Y-108026247D02*
X87185714Y-107645295D01*
X87185714Y-107645295D02*
X87138095Y-107550057D01*
X87138095Y-107550057D02*
X87090476Y-107502438D01*
X87090476Y-107502438D02*
X86995238Y-107454819D01*
X86995238Y-107454819D02*
X86804762Y-107454819D01*
X86804762Y-107454819D02*
X86709524Y-107502438D01*
X86709524Y-107502438D02*
X86661905Y-107550057D01*
X86661905Y-107550057D02*
X86614286Y-107645295D01*
X86614286Y-107645295D02*
X86614286Y-107883390D01*
X86614286Y-107883390D02*
X86661905Y-107978628D01*
X86661905Y-107978628D02*
X86709524Y-108026247D01*
X86709524Y-108026247D02*
X86804762Y-108073866D01*
X86804762Y-108073866D02*
X86995238Y-108073866D01*
X86995238Y-108073866D02*
X87090476Y-108026247D01*
X87090476Y-108026247D02*
X87138095Y-107978628D01*
X87138095Y-107978628D02*
X87185714Y-107883390D01*
X85160180Y-101443257D02*
X85207800Y-101490876D01*
X85207800Y-101490876D02*
X85255419Y-101633733D01*
X85255419Y-101633733D02*
X85255419Y-101728971D01*
X85255419Y-101728971D02*
X85207800Y-101871828D01*
X85207800Y-101871828D02*
X85112561Y-101967066D01*
X85112561Y-101967066D02*
X85017323Y-102014685D01*
X85017323Y-102014685D02*
X84826847Y-102062304D01*
X84826847Y-102062304D02*
X84683990Y-102062304D01*
X84683990Y-102062304D02*
X84493514Y-102014685D01*
X84493514Y-102014685D02*
X84398276Y-101967066D01*
X84398276Y-101967066D02*
X84303038Y-101871828D01*
X84303038Y-101871828D02*
X84255419Y-101728971D01*
X84255419Y-101728971D02*
X84255419Y-101633733D01*
X84255419Y-101633733D02*
X84303038Y-101490876D01*
X84303038Y-101490876D02*
X84350657Y-101443257D01*
X85255419Y-100490876D02*
X85255419Y-101062304D01*
X85255419Y-100776590D02*
X84255419Y-100776590D01*
X84255419Y-100776590D02*
X84398276Y-100871828D01*
X84398276Y-100871828D02*
X84493514Y-100967066D01*
X84493514Y-100967066D02*
X84541133Y-101062304D01*
X84255419Y-99871828D02*
X84255419Y-99776590D01*
X84255419Y-99776590D02*
X84303038Y-99681352D01*
X84303038Y-99681352D02*
X84350657Y-99633733D01*
X84350657Y-99633733D02*
X84445895Y-99586114D01*
X84445895Y-99586114D02*
X84636371Y-99538495D01*
X84636371Y-99538495D02*
X84874466Y-99538495D01*
X84874466Y-99538495D02*
X85064942Y-99586114D01*
X85064942Y-99586114D02*
X85160180Y-99633733D01*
X85160180Y-99633733D02*
X85207800Y-99681352D01*
X85207800Y-99681352D02*
X85255419Y-99776590D01*
X85255419Y-99776590D02*
X85255419Y-99871828D01*
X85255419Y-99871828D02*
X85207800Y-99967066D01*
X85207800Y-99967066D02*
X85160180Y-100014685D01*
X85160180Y-100014685D02*
X85064942Y-100062304D01*
X85064942Y-100062304D02*
X84874466Y-100109923D01*
X84874466Y-100109923D02*
X84636371Y-100109923D01*
X84636371Y-100109923D02*
X84445895Y-100062304D01*
X84445895Y-100062304D02*
X84350657Y-100014685D01*
X84350657Y-100014685D02*
X84303038Y-99967066D01*
X84303038Y-99967066D02*
X84255419Y-99871828D01*
X66048714Y-102636104D02*
X66524904Y-102636104D01*
X65953476Y-102921819D02*
X66286809Y-101921819D01*
X66286809Y-101921819D02*
X66620142Y-102921819D01*
X66953476Y-102921819D02*
X66953476Y-101921819D01*
X66953476Y-101921819D02*
X67191571Y-101921819D01*
X67191571Y-101921819D02*
X67334428Y-101969438D01*
X67334428Y-101969438D02*
X67429666Y-102064676D01*
X67429666Y-102064676D02*
X67477285Y-102159914D01*
X67477285Y-102159914D02*
X67524904Y-102350390D01*
X67524904Y-102350390D02*
X67524904Y-102493247D01*
X67524904Y-102493247D02*
X67477285Y-102683723D01*
X67477285Y-102683723D02*
X67429666Y-102778961D01*
X67429666Y-102778961D02*
X67334428Y-102874200D01*
X67334428Y-102874200D02*
X67191571Y-102921819D01*
X67191571Y-102921819D02*
X66953476Y-102921819D01*
X68524904Y-102826580D02*
X68477285Y-102874200D01*
X68477285Y-102874200D02*
X68334428Y-102921819D01*
X68334428Y-102921819D02*
X68239190Y-102921819D01*
X68239190Y-102921819D02*
X68096333Y-102874200D01*
X68096333Y-102874200D02*
X68001095Y-102778961D01*
X68001095Y-102778961D02*
X67953476Y-102683723D01*
X67953476Y-102683723D02*
X67905857Y-102493247D01*
X67905857Y-102493247D02*
X67905857Y-102350390D01*
X67905857Y-102350390D02*
X67953476Y-102159914D01*
X67953476Y-102159914D02*
X68001095Y-102064676D01*
X68001095Y-102064676D02*
X68096333Y-101969438D01*
X68096333Y-101969438D02*
X68239190Y-101921819D01*
X68239190Y-101921819D02*
X68334428Y-101921819D01*
X68334428Y-101921819D02*
X68477285Y-101969438D01*
X68477285Y-101969438D02*
X68524904Y-102017057D01*
X69477285Y-102921819D02*
X68905857Y-102921819D01*
X69191571Y-102921819D02*
X69191571Y-101921819D01*
X69191571Y-101921819D02*
X69096333Y-102064676D01*
X69096333Y-102064676D02*
X69001095Y-102159914D01*
X69001095Y-102159914D02*
X68905857Y-102207533D01*
X101710299Y-103335380D02*
X101662680Y-103383000D01*
X101662680Y-103383000D02*
X101519823Y-103430619D01*
X101519823Y-103430619D02*
X101424585Y-103430619D01*
X101424585Y-103430619D02*
X101281728Y-103383000D01*
X101281728Y-103383000D02*
X101186490Y-103287761D01*
X101186490Y-103287761D02*
X101138871Y-103192523D01*
X101138871Y-103192523D02*
X101091252Y-103002047D01*
X101091252Y-103002047D02*
X101091252Y-102859190D01*
X101091252Y-102859190D02*
X101138871Y-102668714D01*
X101138871Y-102668714D02*
X101186490Y-102573476D01*
X101186490Y-102573476D02*
X101281728Y-102478238D01*
X101281728Y-102478238D02*
X101424585Y-102430619D01*
X101424585Y-102430619D02*
X101519823Y-102430619D01*
X101519823Y-102430619D02*
X101662680Y-102478238D01*
X101662680Y-102478238D02*
X101710299Y-102525857D01*
X102567442Y-102430619D02*
X102376966Y-102430619D01*
X102376966Y-102430619D02*
X102281728Y-102478238D01*
X102281728Y-102478238D02*
X102234109Y-102525857D01*
X102234109Y-102525857D02*
X102138871Y-102668714D01*
X102138871Y-102668714D02*
X102091252Y-102859190D01*
X102091252Y-102859190D02*
X102091252Y-103240142D01*
X102091252Y-103240142D02*
X102138871Y-103335380D01*
X102138871Y-103335380D02*
X102186490Y-103383000D01*
X102186490Y-103383000D02*
X102281728Y-103430619D01*
X102281728Y-103430619D02*
X102472204Y-103430619D01*
X102472204Y-103430619D02*
X102567442Y-103383000D01*
X102567442Y-103383000D02*
X102615061Y-103335380D01*
X102615061Y-103335380D02*
X102662680Y-103240142D01*
X102662680Y-103240142D02*
X102662680Y-103002047D01*
X102662680Y-103002047D02*
X102615061Y-102906809D01*
X102615061Y-102906809D02*
X102567442Y-102859190D01*
X102567442Y-102859190D02*
X102472204Y-102811571D01*
X102472204Y-102811571D02*
X102281728Y-102811571D01*
X102281728Y-102811571D02*
X102186490Y-102859190D01*
X102186490Y-102859190D02*
X102138871Y-102906809D01*
X102138871Y-102906809D02*
X102091252Y-103002047D01*
D11*
X99507162Y-98043342D02*
X99473490Y-97942326D01*
X99473490Y-97942326D02*
X99372475Y-97841311D01*
X99372475Y-97841311D02*
X99237788Y-97773968D01*
X99237788Y-97773968D02*
X99103101Y-97773968D01*
X99103101Y-97773968D02*
X99002086Y-97807639D01*
X99002086Y-97807639D02*
X98833727Y-97908655D01*
X98833727Y-97908655D02*
X98732712Y-98009670D01*
X98732712Y-98009670D02*
X98631696Y-98178029D01*
X98631696Y-98178029D02*
X98598025Y-98279044D01*
X98598025Y-98279044D02*
X98598025Y-98413731D01*
X98598025Y-98413731D02*
X98665368Y-98548418D01*
X98665368Y-98548418D02*
X98732712Y-98615761D01*
X98732712Y-98615761D02*
X98867399Y-98683105D01*
X98867399Y-98683105D02*
X98934742Y-98683105D01*
X98934742Y-98683105D02*
X99170444Y-98447403D01*
X99170444Y-98447403D02*
X99035757Y-98312716D01*
X99170444Y-99053494D02*
X99877551Y-98346387D01*
X99877551Y-98346387D02*
X99574506Y-99457555D01*
X99574506Y-99457555D02*
X100281612Y-98750448D01*
X99911223Y-99794273D02*
X100618330Y-99087166D01*
X100618330Y-99087166D02*
X100786689Y-99255525D01*
X100786689Y-99255525D02*
X100854032Y-99390212D01*
X100854032Y-99390212D02*
X100854032Y-99524899D01*
X100854032Y-99524899D02*
X100820360Y-99625914D01*
X100820360Y-99625914D02*
X100719345Y-99794273D01*
X100719345Y-99794273D02*
X100618330Y-99895288D01*
X100618330Y-99895288D02*
X100449971Y-99996303D01*
X100449971Y-99996303D02*
X100348956Y-100029975D01*
X100348956Y-100029975D02*
X100214269Y-100029975D01*
X100214269Y-100029975D02*
X100079582Y-99962631D01*
X100079582Y-99962631D02*
X99911223Y-99794273D01*
D10*
X69099133Y-109751019D02*
X68765800Y-109274828D01*
X68527705Y-109751019D02*
X68527705Y-108751019D01*
X68527705Y-108751019D02*
X68908657Y-108751019D01*
X68908657Y-108751019D02*
X69003895Y-108798638D01*
X69003895Y-108798638D02*
X69051514Y-108846257D01*
X69051514Y-108846257D02*
X69099133Y-108941495D01*
X69099133Y-108941495D02*
X69099133Y-109084352D01*
X69099133Y-109084352D02*
X69051514Y-109179590D01*
X69051514Y-109179590D02*
X69003895Y-109227209D01*
X69003895Y-109227209D02*
X68908657Y-109274828D01*
X68908657Y-109274828D02*
X68527705Y-109274828D01*
X70003895Y-108751019D02*
X69527705Y-108751019D01*
X69527705Y-108751019D02*
X69480086Y-109227209D01*
X69480086Y-109227209D02*
X69527705Y-109179590D01*
X69527705Y-109179590D02*
X69622943Y-109131971D01*
X69622943Y-109131971D02*
X69861038Y-109131971D01*
X69861038Y-109131971D02*
X69956276Y-109179590D01*
X69956276Y-109179590D02*
X70003895Y-109227209D01*
X70003895Y-109227209D02*
X70051514Y-109322447D01*
X70051514Y-109322447D02*
X70051514Y-109560542D01*
X70051514Y-109560542D02*
X70003895Y-109655780D01*
X70003895Y-109655780D02*
X69956276Y-109703400D01*
X69956276Y-109703400D02*
X69861038Y-109751019D01*
X69861038Y-109751019D02*
X69622943Y-109751019D01*
X69622943Y-109751019D02*
X69527705Y-109703400D01*
X69527705Y-109703400D02*
X69480086Y-109655780D01*
X86846580Y-101467066D02*
X86894200Y-101514685D01*
X86894200Y-101514685D02*
X86941819Y-101657542D01*
X86941819Y-101657542D02*
X86941819Y-101752780D01*
X86941819Y-101752780D02*
X86894200Y-101895637D01*
X86894200Y-101895637D02*
X86798961Y-101990875D01*
X86798961Y-101990875D02*
X86703723Y-102038494D01*
X86703723Y-102038494D02*
X86513247Y-102086113D01*
X86513247Y-102086113D02*
X86370390Y-102086113D01*
X86370390Y-102086113D02*
X86179914Y-102038494D01*
X86179914Y-102038494D02*
X86084676Y-101990875D01*
X86084676Y-101990875D02*
X85989438Y-101895637D01*
X85989438Y-101895637D02*
X85941819Y-101752780D01*
X85941819Y-101752780D02*
X85941819Y-101657542D01*
X85941819Y-101657542D02*
X85989438Y-101514685D01*
X85989438Y-101514685D02*
X86037057Y-101467066D01*
X86275152Y-100609923D02*
X86941819Y-100609923D01*
X85894200Y-100848018D02*
X86608485Y-101086113D01*
X86608485Y-101086113D02*
X86608485Y-100467066D01*
X86574333Y-113256219D02*
X86241000Y-112780028D01*
X86002905Y-113256219D02*
X86002905Y-112256219D01*
X86002905Y-112256219D02*
X86383857Y-112256219D01*
X86383857Y-112256219D02*
X86479095Y-112303838D01*
X86479095Y-112303838D02*
X86526714Y-112351457D01*
X86526714Y-112351457D02*
X86574333Y-112446695D01*
X86574333Y-112446695D02*
X86574333Y-112589552D01*
X86574333Y-112589552D02*
X86526714Y-112684790D01*
X86526714Y-112684790D02*
X86479095Y-112732409D01*
X86479095Y-112732409D02*
X86383857Y-112780028D01*
X86383857Y-112780028D02*
X86002905Y-112780028D01*
X87431476Y-112256219D02*
X87241000Y-112256219D01*
X87241000Y-112256219D02*
X87145762Y-112303838D01*
X87145762Y-112303838D02*
X87098143Y-112351457D01*
X87098143Y-112351457D02*
X87002905Y-112494314D01*
X87002905Y-112494314D02*
X86955286Y-112684790D01*
X86955286Y-112684790D02*
X86955286Y-113065742D01*
X86955286Y-113065742D02*
X87002905Y-113160980D01*
X87002905Y-113160980D02*
X87050524Y-113208600D01*
X87050524Y-113208600D02*
X87145762Y-113256219D01*
X87145762Y-113256219D02*
X87336238Y-113256219D01*
X87336238Y-113256219D02*
X87431476Y-113208600D01*
X87431476Y-113208600D02*
X87479095Y-113160980D01*
X87479095Y-113160980D02*
X87526714Y-113065742D01*
X87526714Y-113065742D02*
X87526714Y-112827647D01*
X87526714Y-112827647D02*
X87479095Y-112732409D01*
X87479095Y-112732409D02*
X87431476Y-112684790D01*
X87431476Y-112684790D02*
X87336238Y-112637171D01*
X87336238Y-112637171D02*
X87145762Y-112637171D01*
X87145762Y-112637171D02*
X87050524Y-112684790D01*
X87050524Y-112684790D02*
X87002905Y-112732409D01*
X87002905Y-112732409D02*
X86955286Y-112827647D01*
X79161895Y-112840419D02*
X79161895Y-113649942D01*
X79161895Y-113649942D02*
X79209514Y-113745180D01*
X79209514Y-113745180D02*
X79257133Y-113792800D01*
X79257133Y-113792800D02*
X79352371Y-113840419D01*
X79352371Y-113840419D02*
X79542847Y-113840419D01*
X79542847Y-113840419D02*
X79638085Y-113792800D01*
X79638085Y-113792800D02*
X79685704Y-113745180D01*
X79685704Y-113745180D02*
X79733323Y-113649942D01*
X79733323Y-113649942D02*
X79733323Y-112840419D01*
X80161895Y-112935657D02*
X80209514Y-112888038D01*
X80209514Y-112888038D02*
X80304752Y-112840419D01*
X80304752Y-112840419D02*
X80542847Y-112840419D01*
X80542847Y-112840419D02*
X80638085Y-112888038D01*
X80638085Y-112888038D02*
X80685704Y-112935657D01*
X80685704Y-112935657D02*
X80733323Y-113030895D01*
X80733323Y-113030895D02*
X80733323Y-113126133D01*
X80733323Y-113126133D02*
X80685704Y-113268990D01*
X80685704Y-113268990D02*
X80114276Y-113840419D01*
X80114276Y-113840419D02*
X80733323Y-113840419D01*
X74839533Y-101934180D02*
X74791914Y-101981800D01*
X74791914Y-101981800D02*
X74649057Y-102029419D01*
X74649057Y-102029419D02*
X74553819Y-102029419D01*
X74553819Y-102029419D02*
X74410962Y-101981800D01*
X74410962Y-101981800D02*
X74315724Y-101886561D01*
X74315724Y-101886561D02*
X74268105Y-101791323D01*
X74268105Y-101791323D02*
X74220486Y-101600847D01*
X74220486Y-101600847D02*
X74220486Y-101457990D01*
X74220486Y-101457990D02*
X74268105Y-101267514D01*
X74268105Y-101267514D02*
X74315724Y-101172276D01*
X74315724Y-101172276D02*
X74410962Y-101077038D01*
X74410962Y-101077038D02*
X74553819Y-101029419D01*
X74553819Y-101029419D02*
X74649057Y-101029419D01*
X74649057Y-101029419D02*
X74791914Y-101077038D01*
X74791914Y-101077038D02*
X74839533Y-101124657D01*
X75791914Y-102029419D02*
X75220486Y-102029419D01*
X75506200Y-102029419D02*
X75506200Y-101029419D01*
X75506200Y-101029419D02*
X75410962Y-101172276D01*
X75410962Y-101172276D02*
X75315724Y-101267514D01*
X75315724Y-101267514D02*
X75220486Y-101315133D01*
D11*
X96161607Y-106863332D02*
X96700355Y-107402080D01*
X96161607Y-107402080D02*
X96700355Y-106863332D01*
X97811522Y-107637782D02*
X97474805Y-107301064D01*
X97474805Y-107301064D02*
X97104416Y-107604110D01*
X97104416Y-107604110D02*
X97171759Y-107604110D01*
X97171759Y-107604110D02*
X97272774Y-107637782D01*
X97272774Y-107637782D02*
X97441133Y-107806140D01*
X97441133Y-107806140D02*
X97474805Y-107907156D01*
X97474805Y-107907156D02*
X97474805Y-107974499D01*
X97474805Y-107974499D02*
X97441133Y-108075514D01*
X97441133Y-108075514D02*
X97272774Y-108243873D01*
X97272774Y-108243873D02*
X97171759Y-108277545D01*
X97171759Y-108277545D02*
X97104416Y-108277545D01*
X97104416Y-108277545D02*
X97003400Y-108243873D01*
X97003400Y-108243873D02*
X96835042Y-108075514D01*
X96835042Y-108075514D02*
X96801370Y-107974499D01*
X96801370Y-107974499D02*
X96801370Y-107907156D01*
X98047225Y-107873484D02*
X97575820Y-108816293D01*
X97575820Y-108816293D02*
X98518629Y-108344888D01*
X97811523Y-109186682D02*
X98350271Y-109725430D01*
X98585973Y-109826446D02*
X99293080Y-109119339D01*
X98922690Y-110163163D02*
X99629797Y-109456056D01*
X99629797Y-109456056D02*
X99326751Y-110567224D01*
X99326751Y-110567224D02*
X100033858Y-109860117D01*
D10*
X79365095Y-100217919D02*
X79365095Y-101027442D01*
X79365095Y-101027442D02*
X79412714Y-101122680D01*
X79412714Y-101122680D02*
X79460333Y-101170300D01*
X79460333Y-101170300D02*
X79555571Y-101217919D01*
X79555571Y-101217919D02*
X79746047Y-101217919D01*
X79746047Y-101217919D02*
X79841285Y-101170300D01*
X79841285Y-101170300D02*
X79888904Y-101122680D01*
X79888904Y-101122680D02*
X79936523Y-101027442D01*
X79936523Y-101027442D02*
X79936523Y-100217919D01*
X80936523Y-101217919D02*
X80365095Y-101217919D01*
X80650809Y-101217919D02*
X80650809Y-100217919D01*
X80650809Y-100217919D02*
X80555571Y-100360776D01*
X80555571Y-100360776D02*
X80460333Y-100456014D01*
X80460333Y-100456014D02*
X80365095Y-100503633D01*
X74626933Y-107110380D02*
X74579314Y-107158000D01*
X74579314Y-107158000D02*
X74436457Y-107205619D01*
X74436457Y-107205619D02*
X74341219Y-107205619D01*
X74341219Y-107205619D02*
X74198362Y-107158000D01*
X74198362Y-107158000D02*
X74103124Y-107062761D01*
X74103124Y-107062761D02*
X74055505Y-106967523D01*
X74055505Y-106967523D02*
X74007886Y-106777047D01*
X74007886Y-106777047D02*
X74007886Y-106634190D01*
X74007886Y-106634190D02*
X74055505Y-106443714D01*
X74055505Y-106443714D02*
X74103124Y-106348476D01*
X74103124Y-106348476D02*
X74198362Y-106253238D01*
X74198362Y-106253238D02*
X74341219Y-106205619D01*
X74341219Y-106205619D02*
X74436457Y-106205619D01*
X74436457Y-106205619D02*
X74579314Y-106253238D01*
X74579314Y-106253238D02*
X74626933Y-106300857D01*
X74960267Y-106205619D02*
X75579314Y-106205619D01*
X75579314Y-106205619D02*
X75245981Y-106586571D01*
X75245981Y-106586571D02*
X75388838Y-106586571D01*
X75388838Y-106586571D02*
X75484076Y-106634190D01*
X75484076Y-106634190D02*
X75531695Y-106681809D01*
X75531695Y-106681809D02*
X75579314Y-106777047D01*
X75579314Y-106777047D02*
X75579314Y-107015142D01*
X75579314Y-107015142D02*
X75531695Y-107110380D01*
X75531695Y-107110380D02*
X75484076Y-107158000D01*
X75484076Y-107158000D02*
X75388838Y-107205619D01*
X75388838Y-107205619D02*
X75103124Y-107205619D01*
X75103124Y-107205619D02*
X75007886Y-107158000D01*
X75007886Y-107158000D02*
X74960267Y-107110380D01*
D11*
X73693659Y-114267509D02*
X73794675Y-113695089D01*
X73289598Y-113863448D02*
X73996705Y-113156341D01*
X73996705Y-113156341D02*
X74266079Y-113425715D01*
X74266079Y-113425715D02*
X74299751Y-113526731D01*
X74299751Y-113526731D02*
X74299751Y-113594074D01*
X74299751Y-113594074D02*
X74266079Y-113695089D01*
X74266079Y-113695089D02*
X74165064Y-113796105D01*
X74165064Y-113796105D02*
X74064049Y-113829776D01*
X74064049Y-113829776D02*
X73996705Y-113829776D01*
X73996705Y-113829776D02*
X73895690Y-113796105D01*
X73895690Y-113796105D02*
X73626316Y-113526731D01*
X74367094Y-114200166D02*
X74602797Y-114435868D01*
X74333423Y-114907272D02*
X73996705Y-114570555D01*
X73996705Y-114570555D02*
X74703812Y-113863448D01*
X74703812Y-113863448D02*
X75040529Y-114200166D01*
X76386654Y-96192491D02*
X75847906Y-97067956D01*
X75847906Y-97067956D02*
X76487670Y-96697567D01*
X76487670Y-96697567D02*
X76117280Y-97337330D01*
X76117280Y-97337330D02*
X76992746Y-96798582D01*
X76925402Y-97404674D02*
X77161105Y-97640376D01*
X76891731Y-98111780D02*
X76555013Y-97775063D01*
X76555013Y-97775063D02*
X77262120Y-97067956D01*
X77262120Y-97067956D02*
X77598837Y-97404674D01*
D10*
X74280733Y-109878019D02*
X73947400Y-109401828D01*
X73709305Y-109878019D02*
X73709305Y-108878019D01*
X73709305Y-108878019D02*
X74090257Y-108878019D01*
X74090257Y-108878019D02*
X74185495Y-108925638D01*
X74185495Y-108925638D02*
X74233114Y-108973257D01*
X74233114Y-108973257D02*
X74280733Y-109068495D01*
X74280733Y-109068495D02*
X74280733Y-109211352D01*
X74280733Y-109211352D02*
X74233114Y-109306590D01*
X74233114Y-109306590D02*
X74185495Y-109354209D01*
X74185495Y-109354209D02*
X74090257Y-109401828D01*
X74090257Y-109401828D02*
X73709305Y-109401828D01*
X75137876Y-109211352D02*
X75137876Y-109878019D01*
X74899781Y-108830400D02*
X74661686Y-109544685D01*
X74661686Y-109544685D02*
X75280733Y-109544685D01*
X103650857Y-107237648D02*
X103603238Y-107285268D01*
X103603238Y-107285268D02*
X103460381Y-107332887D01*
X103460381Y-107332887D02*
X103365143Y-107332887D01*
X103365143Y-107332887D02*
X103222286Y-107285268D01*
X103222286Y-107285268D02*
X103127048Y-107190029D01*
X103127048Y-107190029D02*
X103079429Y-107094791D01*
X103079429Y-107094791D02*
X103031810Y-106904315D01*
X103031810Y-106904315D02*
X103031810Y-106761458D01*
X103031810Y-106761458D02*
X103079429Y-106570982D01*
X103079429Y-106570982D02*
X103127048Y-106475744D01*
X103127048Y-106475744D02*
X103222286Y-106380506D01*
X103222286Y-106380506D02*
X103365143Y-106332887D01*
X103365143Y-106332887D02*
X103460381Y-106332887D01*
X103460381Y-106332887D02*
X103603238Y-106380506D01*
X103603238Y-106380506D02*
X103650857Y-106428125D01*
X103984191Y-106332887D02*
X104650857Y-106332887D01*
X104650857Y-106332887D02*
X104222286Y-107332887D01*
X91384333Y-106780619D02*
X91051000Y-106304428D01*
X90812905Y-106780619D02*
X90812905Y-105780619D01*
X90812905Y-105780619D02*
X91193857Y-105780619D01*
X91193857Y-105780619D02*
X91289095Y-105828238D01*
X91289095Y-105828238D02*
X91336714Y-105875857D01*
X91336714Y-105875857D02*
X91384333Y-105971095D01*
X91384333Y-105971095D02*
X91384333Y-106113952D01*
X91384333Y-106113952D02*
X91336714Y-106209190D01*
X91336714Y-106209190D02*
X91289095Y-106256809D01*
X91289095Y-106256809D02*
X91193857Y-106304428D01*
X91193857Y-106304428D02*
X90812905Y-106304428D01*
X91955762Y-106209190D02*
X91860524Y-106161571D01*
X91860524Y-106161571D02*
X91812905Y-106113952D01*
X91812905Y-106113952D02*
X91765286Y-106018714D01*
X91765286Y-106018714D02*
X91765286Y-105971095D01*
X91765286Y-105971095D02*
X91812905Y-105875857D01*
X91812905Y-105875857D02*
X91860524Y-105828238D01*
X91860524Y-105828238D02*
X91955762Y-105780619D01*
X91955762Y-105780619D02*
X92146238Y-105780619D01*
X92146238Y-105780619D02*
X92241476Y-105828238D01*
X92241476Y-105828238D02*
X92289095Y-105875857D01*
X92289095Y-105875857D02*
X92336714Y-105971095D01*
X92336714Y-105971095D02*
X92336714Y-106018714D01*
X92336714Y-106018714D02*
X92289095Y-106113952D01*
X92289095Y-106113952D02*
X92241476Y-106161571D01*
X92241476Y-106161571D02*
X92146238Y-106209190D01*
X92146238Y-106209190D02*
X91955762Y-106209190D01*
X91955762Y-106209190D02*
X91860524Y-106256809D01*
X91860524Y-106256809D02*
X91812905Y-106304428D01*
X91812905Y-106304428D02*
X91765286Y-106399666D01*
X91765286Y-106399666D02*
X91765286Y-106590142D01*
X91765286Y-106590142D02*
X91812905Y-106685380D01*
X91812905Y-106685380D02*
X91860524Y-106733000D01*
X91860524Y-106733000D02*
X91955762Y-106780619D01*
X91955762Y-106780619D02*
X92146238Y-106780619D01*
X92146238Y-106780619D02*
X92241476Y-106733000D01*
X92241476Y-106733000D02*
X92289095Y-106685380D01*
X92289095Y-106685380D02*
X92336714Y-106590142D01*
X92336714Y-106590142D02*
X92336714Y-106399666D01*
X92336714Y-106399666D02*
X92289095Y-106304428D01*
X92289095Y-106304428D02*
X92241476Y-106256809D01*
X92241476Y-106256809D02*
X92146238Y-106209190D01*
X84033333Y-97516727D02*
X83700000Y-97040536D01*
X83461905Y-97516727D02*
X83461905Y-96516727D01*
X83461905Y-96516727D02*
X83842857Y-96516727D01*
X83842857Y-96516727D02*
X83938095Y-96564346D01*
X83938095Y-96564346D02*
X83985714Y-96611965D01*
X83985714Y-96611965D02*
X84033333Y-96707203D01*
X84033333Y-96707203D02*
X84033333Y-96850060D01*
X84033333Y-96850060D02*
X83985714Y-96945298D01*
X83985714Y-96945298D02*
X83938095Y-96992917D01*
X83938095Y-96992917D02*
X83842857Y-97040536D01*
X83842857Y-97040536D02*
X83461905Y-97040536D01*
X84985714Y-97516727D02*
X84414286Y-97516727D01*
X84700000Y-97516727D02*
X84700000Y-96516727D01*
X84700000Y-96516727D02*
X84604762Y-96659584D01*
X84604762Y-96659584D02*
X84509524Y-96754822D01*
X84509524Y-96754822D02*
X84414286Y-96802441D01*
X95233333Y-114359580D02*
X95185714Y-114407200D01*
X95185714Y-114407200D02*
X95042857Y-114454819D01*
X95042857Y-114454819D02*
X94947619Y-114454819D01*
X94947619Y-114454819D02*
X94804762Y-114407200D01*
X94804762Y-114407200D02*
X94709524Y-114311961D01*
X94709524Y-114311961D02*
X94661905Y-114216723D01*
X94661905Y-114216723D02*
X94614286Y-114026247D01*
X94614286Y-114026247D02*
X94614286Y-113883390D01*
X94614286Y-113883390D02*
X94661905Y-113692914D01*
X94661905Y-113692914D02*
X94709524Y-113597676D01*
X94709524Y-113597676D02*
X94804762Y-113502438D01*
X94804762Y-113502438D02*
X94947619Y-113454819D01*
X94947619Y-113454819D02*
X95042857Y-113454819D01*
X95042857Y-113454819D02*
X95185714Y-113502438D01*
X95185714Y-113502438D02*
X95233333Y-113550057D01*
X96138095Y-113454819D02*
X95661905Y-113454819D01*
X95661905Y-113454819D02*
X95614286Y-113931009D01*
X95614286Y-113931009D02*
X95661905Y-113883390D01*
X95661905Y-113883390D02*
X95757143Y-113835771D01*
X95757143Y-113835771D02*
X95995238Y-113835771D01*
X95995238Y-113835771D02*
X96090476Y-113883390D01*
X96090476Y-113883390D02*
X96138095Y-113931009D01*
X96138095Y-113931009D02*
X96185714Y-114026247D01*
X96185714Y-114026247D02*
X96185714Y-114264342D01*
X96185714Y-114264342D02*
X96138095Y-114359580D01*
X96138095Y-114359580D02*
X96090476Y-114407200D01*
X96090476Y-114407200D02*
X95995238Y-114454819D01*
X95995238Y-114454819D02*
X95757143Y-114454819D01*
X95757143Y-114454819D02*
X95661905Y-114407200D01*
X95661905Y-114407200D02*
X95614286Y-114359580D01*
X74651333Y-105654819D02*
X74318000Y-105178628D01*
X74079905Y-105654819D02*
X74079905Y-104654819D01*
X74079905Y-104654819D02*
X74460857Y-104654819D01*
X74460857Y-104654819D02*
X74556095Y-104702438D01*
X74556095Y-104702438D02*
X74603714Y-104750057D01*
X74603714Y-104750057D02*
X74651333Y-104845295D01*
X74651333Y-104845295D02*
X74651333Y-104988152D01*
X74651333Y-104988152D02*
X74603714Y-105083390D01*
X74603714Y-105083390D02*
X74556095Y-105131009D01*
X74556095Y-105131009D02*
X74460857Y-105178628D01*
X74460857Y-105178628D02*
X74079905Y-105178628D01*
X75032286Y-104750057D02*
X75079905Y-104702438D01*
X75079905Y-104702438D02*
X75175143Y-104654819D01*
X75175143Y-104654819D02*
X75413238Y-104654819D01*
X75413238Y-104654819D02*
X75508476Y-104702438D01*
X75508476Y-104702438D02*
X75556095Y-104750057D01*
X75556095Y-104750057D02*
X75603714Y-104845295D01*
X75603714Y-104845295D02*
X75603714Y-104940533D01*
X75603714Y-104940533D02*
X75556095Y-105083390D01*
X75556095Y-105083390D02*
X74984667Y-105654819D01*
X74984667Y-105654819D02*
X75603714Y-105654819D01*
X74833333Y-103854819D02*
X74500000Y-103378628D01*
X74261905Y-103854819D02*
X74261905Y-102854819D01*
X74261905Y-102854819D02*
X74642857Y-102854819D01*
X74642857Y-102854819D02*
X74738095Y-102902438D01*
X74738095Y-102902438D02*
X74785714Y-102950057D01*
X74785714Y-102950057D02*
X74833333Y-103045295D01*
X74833333Y-103045295D02*
X74833333Y-103188152D01*
X74833333Y-103188152D02*
X74785714Y-103283390D01*
X74785714Y-103283390D02*
X74738095Y-103331009D01*
X74738095Y-103331009D02*
X74642857Y-103378628D01*
X74642857Y-103378628D02*
X74261905Y-103378628D01*
X75166667Y-102854819D02*
X75785714Y-102854819D01*
X75785714Y-102854819D02*
X75452381Y-103235771D01*
X75452381Y-103235771D02*
X75595238Y-103235771D01*
X75595238Y-103235771D02*
X75690476Y-103283390D01*
X75690476Y-103283390D02*
X75738095Y-103331009D01*
X75738095Y-103331009D02*
X75785714Y-103426247D01*
X75785714Y-103426247D02*
X75785714Y-103664342D01*
X75785714Y-103664342D02*
X75738095Y-103759580D01*
X75738095Y-103759580D02*
X75690476Y-103807200D01*
X75690476Y-103807200D02*
X75595238Y-103854819D01*
X75595238Y-103854819D02*
X75309524Y-103854819D01*
X75309524Y-103854819D02*
X75214286Y-103807200D01*
X75214286Y-103807200D02*
X75166667Y-103759580D01*
X84433333Y-108359580D02*
X84385714Y-108407200D01*
X84385714Y-108407200D02*
X84242857Y-108454819D01*
X84242857Y-108454819D02*
X84147619Y-108454819D01*
X84147619Y-108454819D02*
X84004762Y-108407200D01*
X84004762Y-108407200D02*
X83909524Y-108311961D01*
X83909524Y-108311961D02*
X83861905Y-108216723D01*
X83861905Y-108216723D02*
X83814286Y-108026247D01*
X83814286Y-108026247D02*
X83814286Y-107883390D01*
X83814286Y-107883390D02*
X83861905Y-107692914D01*
X83861905Y-107692914D02*
X83909524Y-107597676D01*
X83909524Y-107597676D02*
X84004762Y-107502438D01*
X84004762Y-107502438D02*
X84147619Y-107454819D01*
X84147619Y-107454819D02*
X84242857Y-107454819D01*
X84242857Y-107454819D02*
X84385714Y-107502438D01*
X84385714Y-107502438D02*
X84433333Y-107550057D01*
X85004762Y-107883390D02*
X84909524Y-107835771D01*
X84909524Y-107835771D02*
X84861905Y-107788152D01*
X84861905Y-107788152D02*
X84814286Y-107692914D01*
X84814286Y-107692914D02*
X84814286Y-107645295D01*
X84814286Y-107645295D02*
X84861905Y-107550057D01*
X84861905Y-107550057D02*
X84909524Y-107502438D01*
X84909524Y-107502438D02*
X85004762Y-107454819D01*
X85004762Y-107454819D02*
X85195238Y-107454819D01*
X85195238Y-107454819D02*
X85290476Y-107502438D01*
X85290476Y-107502438D02*
X85338095Y-107550057D01*
X85338095Y-107550057D02*
X85385714Y-107645295D01*
X85385714Y-107645295D02*
X85385714Y-107692914D01*
X85385714Y-107692914D02*
X85338095Y-107788152D01*
X85338095Y-107788152D02*
X85290476Y-107835771D01*
X85290476Y-107835771D02*
X85195238Y-107883390D01*
X85195238Y-107883390D02*
X85004762Y-107883390D01*
X85004762Y-107883390D02*
X84909524Y-107931009D01*
X84909524Y-107931009D02*
X84861905Y-107978628D01*
X84861905Y-107978628D02*
X84814286Y-108073866D01*
X84814286Y-108073866D02*
X84814286Y-108264342D01*
X84814286Y-108264342D02*
X84861905Y-108359580D01*
X84861905Y-108359580D02*
X84909524Y-108407200D01*
X84909524Y-108407200D02*
X85004762Y-108454819D01*
X85004762Y-108454819D02*
X85195238Y-108454819D01*
X85195238Y-108454819D02*
X85290476Y-108407200D01*
X85290476Y-108407200D02*
X85338095Y-108359580D01*
X85338095Y-108359580D02*
X85385714Y-108264342D01*
X85385714Y-108264342D02*
X85385714Y-108073866D01*
X85385714Y-108073866D02*
X85338095Y-107978628D01*
X85338095Y-107978628D02*
X85290476Y-107931009D01*
X85290476Y-107931009D02*
X85195238Y-107883390D01*
X91578133Y-110665419D02*
X91244800Y-110189228D01*
X91006705Y-110665419D02*
X91006705Y-109665419D01*
X91006705Y-109665419D02*
X91387657Y-109665419D01*
X91387657Y-109665419D02*
X91482895Y-109713038D01*
X91482895Y-109713038D02*
X91530514Y-109760657D01*
X91530514Y-109760657D02*
X91578133Y-109855895D01*
X91578133Y-109855895D02*
X91578133Y-109998752D01*
X91578133Y-109998752D02*
X91530514Y-110093990D01*
X91530514Y-110093990D02*
X91482895Y-110141609D01*
X91482895Y-110141609D02*
X91387657Y-110189228D01*
X91387657Y-110189228D02*
X91006705Y-110189228D01*
X91911467Y-109665419D02*
X92578133Y-109665419D01*
X92578133Y-109665419D02*
X92149562Y-110665419D01*
X88853180Y-99767066D02*
X88900800Y-99814685D01*
X88900800Y-99814685D02*
X88948419Y-99957542D01*
X88948419Y-99957542D02*
X88948419Y-100052780D01*
X88948419Y-100052780D02*
X88900800Y-100195637D01*
X88900800Y-100195637D02*
X88805561Y-100290875D01*
X88805561Y-100290875D02*
X88710323Y-100338494D01*
X88710323Y-100338494D02*
X88519847Y-100386113D01*
X88519847Y-100386113D02*
X88376990Y-100386113D01*
X88376990Y-100386113D02*
X88186514Y-100338494D01*
X88186514Y-100338494D02*
X88091276Y-100290875D01*
X88091276Y-100290875D02*
X87996038Y-100195637D01*
X87996038Y-100195637D02*
X87948419Y-100052780D01*
X87948419Y-100052780D02*
X87948419Y-99957542D01*
X87948419Y-99957542D02*
X87996038Y-99814685D01*
X87996038Y-99814685D02*
X88043657Y-99767066D01*
X88043657Y-99386113D02*
X87996038Y-99338494D01*
X87996038Y-99338494D02*
X87948419Y-99243256D01*
X87948419Y-99243256D02*
X87948419Y-99005161D01*
X87948419Y-99005161D02*
X87996038Y-98909923D01*
X87996038Y-98909923D02*
X88043657Y-98862304D01*
X88043657Y-98862304D02*
X88138895Y-98814685D01*
X88138895Y-98814685D02*
X88234133Y-98814685D01*
X88234133Y-98814685D02*
X88376990Y-98862304D01*
X88376990Y-98862304D02*
X88948419Y-99433732D01*
X88948419Y-99433732D02*
X88948419Y-98814685D01*
D12*
%TO.C,C9*%
X85690000Y-110116233D02*
X85690000Y-110408767D01*
X86710000Y-110116233D02*
X86710000Y-110408767D01*
%TO.C,C10*%
X85320600Y-104084167D02*
X85320600Y-103791633D01*
X84300600Y-104084167D02*
X84300600Y-103791633D01*
%TO.C,ADC1*%
X66433000Y-106447000D02*
X66433000Y-106567000D01*
X66433000Y-106567000D02*
X69093000Y-106567000D01*
X67763000Y-103907000D02*
X69093000Y-103907000D01*
X69093000Y-103907000D02*
X69093000Y-105237000D01*
X69093000Y-106447000D02*
X69093000Y-106567000D01*
%TO.C,C6*%
X101165714Y-103915800D02*
X102588218Y-103915800D01*
X101165714Y-105735800D02*
X102588218Y-105735800D01*
%TO.C,GND*%
X96079000Y-102276600D02*
X96079000Y-102396600D01*
X96079000Y-102396600D02*
X98739000Y-102396600D01*
X97409000Y-99736600D02*
X98739000Y-99736600D01*
X98739000Y-99736600D02*
X98739000Y-101066600D01*
X98739000Y-102276600D02*
X98739000Y-102396600D01*
%TO.C,R5*%
X71540900Y-110568824D02*
X71540900Y-110059376D01*
X70495900Y-110568824D02*
X70495900Y-110059376D01*
%TO.C,C4*%
X86997000Y-104084167D02*
X86997000Y-103791633D01*
X85977000Y-104084167D02*
X85977000Y-103791633D01*
%TO.C,R6*%
X88965300Y-111483224D02*
X88965300Y-110973776D01*
X87920300Y-111483224D02*
X87920300Y-110973776D01*
%TO.C,U2*%
X77940000Y-107438700D02*
X82060000Y-107438700D01*
X77940000Y-107533700D02*
X77940000Y-107438700D01*
X77940000Y-112558700D02*
X77940000Y-112463700D01*
X82060000Y-107438700D02*
X82060000Y-107533700D01*
X82060000Y-112463700D02*
X82060000Y-112558700D01*
X82060000Y-112558700D02*
X77940000Y-112558700D01*
X77400000Y-107528700D02*
X77160000Y-107198700D01*
X77640000Y-107198700D01*
X77400000Y-107528700D01*
G36*
X77400000Y-107528700D02*
G01*
X77160000Y-107198700D01*
X77640000Y-107198700D01*
X77400000Y-107528700D01*
G37*
%TO.C,C1*%
X72483767Y-100990000D02*
X72191233Y-100990000D01*
X72483767Y-102010000D02*
X72191233Y-102010000D01*
%TO.C,+5V_IN*%
X96079000Y-106035800D02*
X96079000Y-106155800D01*
X96079000Y-106155800D02*
X98739000Y-106155800D01*
X97409000Y-103495800D02*
X98739000Y-103495800D01*
X98739000Y-103495800D02*
X98739000Y-104825800D01*
X98739000Y-106035800D02*
X98739000Y-106155800D01*
%TO.C,U1*%
X77940000Y-101555900D02*
X82060000Y-101555900D01*
X77940000Y-101650900D02*
X77940000Y-101555900D01*
X77940000Y-106675900D02*
X77940000Y-106580900D01*
X82060000Y-101555900D02*
X82060000Y-101650900D01*
X82060000Y-106580900D02*
X82060000Y-106675900D01*
X82060000Y-106675900D02*
X77940000Y-106675900D01*
X77400000Y-101645900D02*
X77160000Y-101315900D01*
X77640000Y-101315900D01*
X77400000Y-101645900D01*
G36*
X77400000Y-101645900D02*
G01*
X77160000Y-101315900D01*
X77640000Y-101315900D01*
X77400000Y-101645900D01*
G37*
%TO.C,C3*%
X72009833Y-106240800D02*
X72302367Y-106240800D01*
X72009833Y-107260800D02*
X72302367Y-107260800D01*
%TO.C,RE*%
X69663800Y-112615200D02*
X71043800Y-112615200D01*
X69663800Y-113995200D02*
X69663800Y-112615200D01*
X69663800Y-115265200D02*
X69663800Y-115375200D01*
X69663800Y-115265200D02*
X72423800Y-115265200D01*
X69663800Y-115375200D02*
X72423800Y-115375200D01*
X72423800Y-115265200D02*
X72423800Y-115375200D01*
%TO.C,WE*%
X78245000Y-95930000D02*
X78245000Y-95820000D01*
X81005000Y-95820000D02*
X78245000Y-95820000D01*
X81005000Y-95930000D02*
X78245000Y-95930000D01*
X81005000Y-95930000D02*
X81005000Y-95820000D01*
X81005000Y-97200000D02*
X81005000Y-98580000D01*
X81005000Y-98580000D02*
X79625000Y-98580000D01*
%TO.C,R4*%
X73344300Y-110033976D02*
X73344300Y-110543424D01*
X72299300Y-110033976D02*
X72299300Y-110543424D01*
%TO.C,C7*%
X101033757Y-106348068D02*
X101326291Y-106348068D01*
X101033757Y-107368068D02*
X101326291Y-107368068D01*
%TO.C,R8*%
X91718224Y-104303300D02*
X91208776Y-104303300D01*
X91718224Y-105348300D02*
X91208776Y-105348300D01*
%TO.C,R1*%
X81953321Y-98367224D02*
X81953321Y-97857776D01*
X82998321Y-98367224D02*
X82998321Y-97857776D01*
%TO.C,C5*%
X92516233Y-113290000D02*
X92808767Y-113290000D01*
X92516233Y-114310000D02*
X92808767Y-114310000D01*
%TO.C,R2*%
X71975776Y-104677500D02*
X72485224Y-104677500D01*
X71975776Y-105722500D02*
X72485224Y-105722500D01*
%TO.C,R3*%
X72427064Y-102665000D02*
X71972936Y-102665000D01*
X72427064Y-104135000D02*
X71972936Y-104135000D01*
%TO.C,C8*%
X84090000Y-110116233D02*
X84090000Y-110408767D01*
X85110000Y-110116233D02*
X85110000Y-110408767D01*
%TO.C,R7*%
X89565000Y-110945276D02*
X89565000Y-111454724D01*
X90610000Y-110945276D02*
X90610000Y-111454724D01*
%TO.C,C2*%
X89403600Y-103949152D02*
X89403600Y-102526648D01*
X87583600Y-103949152D02*
X87583600Y-102526648D01*
%TD*%
M02*
