M48
; DRILL file {KiCad 9.0.6} date 2025-12-21T15:00:35-0500
; FORMAT={-:-/ absolute / metric / decimal}
; #@! TF.CreationDate,2025-12-21T15:00:35-05:00
; #@! TF.GenerationSoftware,Kicad,Pcbnew,9.0.6
; #@! TF.FileFunction,Plated,1,2,PTH
FMAT,2
METRIC
; #@! TA.AperFunction,Plated,PTH,ViaDrill
T1C0.300
; #@! TA.AperFunction,Plated,PTH,ComponentDrill
T2C1.000
%
G90
G05
T1
X71.323Y-108.102
X72.669Y-108.052
X74.778Y-103.505
X75.743Y-112.039
X75.971Y-102.26
X79.858Y-109.042
X84.404Y-101.778
X84.836Y-112.7
X86.03Y-101.117
X86.512Y-112.573
X87.909Y-100.203
X88.189Y-109.169
X95.377Y-113.36
X102.514Y-108.128
X103.657Y-106.578
T2
X67.763Y-105.237
X71.044Y-113.995
X79.625Y-97.2
X97.409Y-101.067
X97.409Y-104.826
M30
