%TF.GenerationSoftware,KiCad,Pcbnew,9.0.6*%
%TF.CreationDate,2025-12-21T15:01:31-05:00*%
%TF.ProjectId,olyntia,6f6c796e-7469-4612-9e6b-696361645f70,rev?*%
%TF.SameCoordinates,Original*%
%TF.FileFunction,Copper,L1,Top*%
%TF.FilePolarity,Positive*%
%FSLAX46Y46*%
G04 Gerber Fmt 4.6, Leading zero omitted, Abs format (unit mm)*
G04 Created by KiCad (PCBNEW 9.0.6) date 2025-12-21 15:01:31*
%MOMM*%
%LPD*%
G01*
G04 APERTURE LIST*
G04 Aperture macros list*
%AMRoundRect*
0 Rectangle with rounded corners*
0 $1 Rounding radius*
0 $2 $3 $4 $5 $6 $7 $8 $9 X,Y pos of 4 corners*
0 Add a 4 corners polygon primitive as box body*
4,1,4,$2,$3,$4,$5,$6,$7,$8,$9,$2,$3,0*
0 Add four circle primitives for the rounded corners*
1,1,$1+$1,$2,$3*
1,1,$1+$1,$4,$5*
1,1,$1+$1,$6,$7*
1,1,$1+$1,$8,$9*
0 Add four rect primitives between the rounded corners*
20,1,$1+$1,$2,$3,$4,$5,0*
20,1,$1+$1,$4,$5,$6,$7,0*
20,1,$1+$1,$6,$7,$8,$9,0*
20,1,$1+$1,$8,$9,$2,$3,0*%
G04 Aperture macros list end*
%TA.AperFunction,SMDPad,CuDef*%
%ADD10RoundRect,0.237500X-0.237500X0.300000X-0.237500X-0.300000X0.237500X-0.300000X0.237500X0.300000X0*%
%TD*%
%TA.AperFunction,SMDPad,CuDef*%
%ADD11RoundRect,0.237500X0.237500X-0.300000X0.237500X0.300000X-0.237500X0.300000X-0.237500X-0.300000X0*%
%TD*%
%TA.AperFunction,ComponentPad*%
%ADD12R,1.700000X1.700000*%
%TD*%
%TA.AperFunction,SMDPad,CuDef*%
%ADD13RoundRect,0.250000X-0.412500X-0.650000X0.412500X-0.650000X0.412500X0.650000X-0.412500X0.650000X0*%
%TD*%
%TA.AperFunction,SMDPad,CuDef*%
%ADD14RoundRect,0.237500X0.237500X-0.250000X0.237500X0.250000X-0.237500X0.250000X-0.237500X-0.250000X0*%
%TD*%
%TA.AperFunction,SMDPad,CuDef*%
%ADD15RoundRect,0.150000X-0.825000X-0.150000X0.825000X-0.150000X0.825000X0.150000X-0.825000X0.150000X0*%
%TD*%
%TA.AperFunction,SMDPad,CuDef*%
%ADD16RoundRect,0.237500X0.300000X0.237500X-0.300000X0.237500X-0.300000X-0.237500X0.300000X-0.237500X0*%
%TD*%
%TA.AperFunction,SMDPad,CuDef*%
%ADD17RoundRect,0.237500X-0.300000X-0.237500X0.300000X-0.237500X0.300000X0.237500X-0.300000X0.237500X0*%
%TD*%
%TA.AperFunction,SMDPad,CuDef*%
%ADD18RoundRect,0.237500X-0.237500X0.250000X-0.237500X-0.250000X0.237500X-0.250000X0.237500X0.250000X0*%
%TD*%
%TA.AperFunction,SMDPad,CuDef*%
%ADD19RoundRect,0.237500X0.250000X0.237500X-0.250000X0.237500X-0.250000X-0.237500X0.250000X-0.237500X0*%
%TD*%
%TA.AperFunction,SMDPad,CuDef*%
%ADD20RoundRect,0.237500X-0.250000X-0.237500X0.250000X-0.237500X0.250000X0.237500X-0.250000X0.237500X0*%
%TD*%
%TA.AperFunction,SMDPad,CuDef*%
%ADD21RoundRect,0.250000X0.350000X0.450000X-0.350000X0.450000X-0.350000X-0.450000X0.350000X-0.450000X0*%
%TD*%
%TA.AperFunction,SMDPad,CuDef*%
%ADD22RoundRect,0.250000X0.650000X-0.412500X0.650000X0.412500X-0.650000X0.412500X-0.650000X-0.412500X0*%
%TD*%
%TA.AperFunction,ViaPad*%
%ADD23C,0.600000*%
%TD*%
%TA.AperFunction,Conductor*%
%ADD24C,1.000000*%
%TD*%
%TA.AperFunction,Conductor*%
%ADD25C,0.500000*%
%TD*%
%TA.AperFunction,Conductor*%
%ADD26C,0.300000*%
%TD*%
G04 APERTURE END LIST*
D10*
%TO.P,C9,1*%
%TO.N,+5V*%
X86200000Y-109400000D03*
%TO.P,C9,2*%
%TO.N,GND*%
X86200000Y-111125000D03*
%TD*%
D11*
%TO.P,C10,1*%
%TO.N,Net-(U1-V+)*%
X84810600Y-104800400D03*
%TO.P,C10,2*%
%TO.N,GND*%
X84810600Y-103075400D03*
%TD*%
D12*
%TO.P,ADC1,1,Pin_1*%
%TO.N,Net-(ADC1-Pin_1)*%
X67763000Y-105237000D03*
%TD*%
D13*
%TO.P,C6,1*%
%TO.N,+5V*%
X100314466Y-104825800D03*
%TO.P,C6,2*%
%TO.N,GND*%
X103439466Y-104825800D03*
%TD*%
D12*
%TO.P,GND,1,Pin_1*%
%TO.N,GND*%
X97409000Y-101066600D03*
%TD*%
D14*
%TO.P,R5,1*%
%TO.N,Net-(RefElectrodePin1-Pin_1)*%
X71018400Y-111226600D03*
%TO.P,R5,2*%
%TO.N,GND*%
X71018400Y-109401600D03*
%TD*%
D11*
%TO.P,C4,1*%
%TO.N,Net-(U1-V+)*%
X86487000Y-104800400D03*
%TO.P,C4,2*%
%TO.N,GND*%
X86487000Y-103075400D03*
%TD*%
D14*
%TO.P,R6,1*%
%TO.N,Net-(U2-+)*%
X88442800Y-112141000D03*
%TO.P,R6,2*%
%TO.N,GND*%
X88442800Y-110316000D03*
%TD*%
D15*
%TO.P,U2,1*%
%TO.N,N/C*%
X77525000Y-108093700D03*
%TO.P,U2,2,-*%
%TO.N,Net-(U1-+)*%
X77525000Y-109363700D03*
%TO.P,U2,3,+*%
%TO.N,Net-(U2-+)*%
X77525000Y-110633700D03*
%TO.P,U2,4,V-*%
%TO.N,GND*%
X77525000Y-111903700D03*
%TO.P,U2,5*%
%TO.N,N/C*%
X82475000Y-111903700D03*
%TO.P,U2,6*%
%TO.N,Net-(U1-+)*%
X82475000Y-110633700D03*
%TO.P,U2,7,V+*%
%TO.N,+5V*%
X82475000Y-109363700D03*
%TO.P,U2,8*%
%TO.N,N/C*%
X82475000Y-108093700D03*
%TD*%
D16*
%TO.P,C1,1*%
%TO.N,Net-(C1-Pad1)*%
X73200000Y-101500000D03*
%TO.P,C1,2*%
%TO.N,Net-(U1--)*%
X71475000Y-101500000D03*
%TD*%
D12*
%TO.P,+5V_IN,1,Pin_1*%
%TO.N,+5V*%
X97409000Y-104825800D03*
%TD*%
D15*
%TO.P,U1,1,+*%
%TO.N,Net-(U1-+)*%
X77525000Y-102210900D03*
%TO.P,U1,2*%
%TO.N,N/C*%
X77525000Y-103480900D03*
%TO.P,U1,3,V-*%
%TO.N,GND*%
X77525000Y-104750900D03*
%TO.P,U1,4*%
%TO.N,Net-(C1-Pad1)*%
X77525000Y-106020900D03*
%TO.P,U1,5*%
%TO.N,N/C*%
X82475000Y-106020900D03*
%TO.P,U1,6,V+*%
%TO.N,Net-(U1-V+)*%
X82475000Y-104750900D03*
%TO.P,U1,7*%
%TO.N,N/C*%
X82475000Y-103480900D03*
%TO.P,U1,8,-*%
%TO.N,Net-(U1--)*%
X82475000Y-102210900D03*
%TD*%
D17*
%TO.P,C3,1*%
%TO.N,Net-(ADC1-Pin_1)*%
X71293600Y-106750800D03*
%TO.P,C3,2*%
%TO.N,GND*%
X73018600Y-106750800D03*
%TD*%
D12*
%TO.P,RE,1,Pin_1*%
%TO.N,Net-(RefElectrodePin1-Pin_1)*%
X71043800Y-113995200D03*
%TD*%
%TO.P,WE,1,Pin_1*%
%TO.N,Net-(WorkingElectrode1-Pin_1)*%
X79625000Y-97200000D03*
%TD*%
D18*
%TO.P,R4,1*%
%TO.N,Net-(U1-+)*%
X72821800Y-109376200D03*
%TO.P,R4,2*%
%TO.N,Net-(RefElectrodePin1-Pin_1)*%
X72821800Y-111201200D03*
%TD*%
D17*
%TO.P,C7,1*%
%TO.N,+5V*%
X100317524Y-106858068D03*
%TO.P,C7,2*%
%TO.N,GND*%
X102042524Y-106858068D03*
%TD*%
D19*
%TO.P,R8,1*%
%TO.N,+5V*%
X92376000Y-104825800D03*
%TO.P,R8,2*%
%TO.N,Net-(U1-V+)*%
X90551000Y-104825800D03*
%TD*%
D14*
%TO.P,R1,1*%
%TO.N,Net-(U1--)*%
X82475821Y-99025000D03*
%TO.P,R1,2*%
%TO.N,Net-(WorkingElectrode1-Pin_1)*%
X82475821Y-97200000D03*
%TD*%
D17*
%TO.P,C5,1*%
%TO.N,Net-(U2-+)*%
X91800000Y-113800000D03*
%TO.P,C5,2*%
%TO.N,GND*%
X93525000Y-113800000D03*
%TD*%
D20*
%TO.P,R2,1*%
%TO.N,Net-(ADC1-Pin_1)*%
X71318000Y-105200000D03*
%TO.P,R2,2*%
%TO.N,Net-(C1-Pad1)*%
X73143000Y-105200000D03*
%TD*%
D21*
%TO.P,R3,1*%
%TO.N,Net-(C1-Pad1)*%
X73200000Y-103400000D03*
%TO.P,R3,2*%
%TO.N,Net-(U1--)*%
X71200000Y-103400000D03*
%TD*%
D10*
%TO.P,C8,1*%
%TO.N,+5V*%
X84600000Y-109400000D03*
%TO.P,C8,2*%
%TO.N,GND*%
X84600000Y-111125000D03*
%TD*%
D18*
%TO.P,R7,1*%
%TO.N,+5V*%
X90087500Y-110287500D03*
%TO.P,R7,2*%
%TO.N,Net-(U2-+)*%
X90087500Y-112112500D03*
%TD*%
D22*
%TO.P,C2,1*%
%TO.N,Net-(U1-V+)*%
X88493600Y-104800400D03*
%TO.P,C2,2*%
%TO.N,GND*%
X88493600Y-101675400D03*
%TD*%
D23*
%TO.N,GND*%
X88188800Y-109169200D03*
X86512400Y-112572800D03*
X84836000Y-112699800D03*
X74777600Y-103505000D03*
X75742800Y-112039400D03*
X71323200Y-108102400D03*
X72669400Y-108051600D03*
X84404200Y-101777800D03*
X86029800Y-101117400D03*
X87909400Y-100203000D03*
X103657400Y-106578400D03*
X102514400Y-108127800D03*
X95377000Y-113360200D03*
%TO.N,Net-(U1-+)*%
X79857600Y-109042200D03*
X75971400Y-102260400D03*
%TD*%
D24*
%TO.N,+5V*%
X94107000Y-104825800D02*
X93254189Y-104825800D01*
X93254189Y-104825800D02*
X92376000Y-104825800D01*
X94033730Y-107820070D02*
X94917613Y-106936186D01*
X94945200Y-106908600D02*
X94945200Y-105664000D01*
X94917613Y-106936186D02*
X94945200Y-106908600D01*
X93573600Y-108280200D02*
X94033730Y-107820070D01*
X89306400Y-108280200D02*
X93573600Y-108280200D01*
D25*
%TO.N,GND*%
X75591700Y-104750900D02*
X77525000Y-104750900D01*
X74777600Y-103936800D02*
X75591700Y-104750900D01*
X74777600Y-103505000D02*
X74777600Y-103936800D01*
X88442800Y-109423200D02*
X88188800Y-109169200D01*
X88442800Y-110316000D02*
X88442800Y-109423200D01*
X86200000Y-112260400D02*
X86512400Y-112572800D01*
X86200000Y-111125000D02*
X86200000Y-112260400D01*
X84600000Y-112463800D02*
X84836000Y-112699800D01*
X84600000Y-111125000D02*
X84600000Y-112463800D01*
%TO.N,Net-(C1-Pad1)*%
X74677300Y-106020900D02*
X77525000Y-106020900D01*
X73799400Y-105143000D02*
X74677300Y-106020900D01*
X73200000Y-105143000D02*
X73799400Y-105143000D01*
%TO.N,GND*%
X75878500Y-111903700D02*
X75742800Y-112039400D01*
X77525000Y-111903700D02*
X75878500Y-111903700D01*
X94937200Y-113800000D02*
X95377000Y-113360200D01*
X93525000Y-113800000D02*
X94937200Y-113800000D01*
X88493600Y-100787200D02*
X87909400Y-100203000D01*
X88493600Y-101675400D02*
X88493600Y-100787200D01*
X86487000Y-101574600D02*
X86029800Y-101117400D01*
X86487000Y-103075400D02*
X86487000Y-101574600D01*
X84810600Y-102184200D02*
X84404200Y-101777800D01*
X84810600Y-103075400D02*
X84810600Y-102184200D01*
X103439466Y-106360466D02*
X103657400Y-106578400D01*
X103439466Y-104825800D02*
X103439466Y-106360466D01*
X102042524Y-107655924D02*
X102514400Y-108127800D01*
X102042524Y-106858068D02*
X102042524Y-107655924D01*
D26*
X73018600Y-107702400D02*
X72669400Y-108051600D01*
X73018600Y-106750800D02*
X73018600Y-107702400D01*
X71018400Y-108407200D02*
X71323200Y-108102400D01*
X71018400Y-109401600D02*
X71018400Y-108407200D01*
%TO.N,Net-(U1-+)*%
X81449100Y-110633700D02*
X79857600Y-109042200D01*
X82475000Y-110633700D02*
X81449100Y-110633700D01*
X79536100Y-109363700D02*
X79857600Y-109042200D01*
X77525000Y-109363700D02*
X79536100Y-109363700D01*
D25*
X72821800Y-109376200D02*
X77513800Y-109376200D01*
X77520800Y-109369200D02*
X77525000Y-109365000D01*
%TO.N,Net-(U2-+)*%
X90087500Y-113120900D02*
X89433400Y-113775000D01*
X90087500Y-112112500D02*
X90087500Y-113120900D01*
X90087500Y-113775000D02*
X89433400Y-113775000D01*
X90087500Y-113159100D02*
X90703400Y-113775000D01*
X90087500Y-112112500D02*
X90087500Y-113159100D01*
X90703400Y-113775000D02*
X91775000Y-113775000D01*
X90087500Y-112112500D02*
X90087500Y-113775000D01*
X90087500Y-113775000D02*
X90703400Y-113775000D01*
X90059000Y-112141000D02*
X90087500Y-112112500D01*
X88442800Y-112141000D02*
X90059000Y-112141000D01*
%TO.N,Net-(U1-+)*%
X77513800Y-109376200D02*
X77520800Y-109369200D01*
%TO.N,Net-(RefElectrodePin1-Pin_1)*%
X72796400Y-111226600D02*
X72821800Y-111201200D01*
X71018400Y-111226600D02*
X72796400Y-111226600D01*
X71043800Y-111252000D02*
X71018400Y-111226600D01*
X71043800Y-113995200D02*
X71043800Y-111252000D01*
D26*
%TO.N,Net-(U1-V+)*%
X90525600Y-104800400D02*
X90551000Y-104825800D01*
X88493600Y-104800400D02*
X90525600Y-104800400D01*
X86487000Y-104800400D02*
X88493600Y-104800400D01*
X84810600Y-104800400D02*
X86487000Y-104800400D01*
X84761100Y-104750900D02*
X84810600Y-104800400D01*
X82475000Y-104750900D02*
X84761100Y-104750900D01*
D25*
%TO.N,+5V*%
X87319800Y-108280200D02*
X86200000Y-109400000D01*
X89306400Y-108280200D02*
X87319800Y-108280200D01*
X84600000Y-109400000D02*
X86200000Y-109400000D01*
X90087500Y-109124700D02*
X90932000Y-108280200D01*
X90087500Y-110287500D02*
X90087500Y-109124700D01*
X90087500Y-109061300D02*
X89306400Y-108280200D01*
X90087500Y-110287500D02*
X90087500Y-109061300D01*
X90087500Y-110287500D02*
X90087500Y-108375500D01*
X90087500Y-108375500D02*
X89992200Y-108280200D01*
D24*
X95910400Y-104825800D02*
X94945200Y-104825800D01*
X95910400Y-104825800D02*
X95783400Y-104825800D01*
X95783400Y-104825800D02*
X94945200Y-105664000D01*
X94107000Y-104825800D02*
X94945200Y-105664000D01*
X94945200Y-105664000D02*
X94945200Y-104825800D01*
X94945200Y-104825800D02*
X94107000Y-104825800D01*
X97409000Y-104825800D02*
X95910400Y-104825800D01*
X97409000Y-104825800D02*
X100314466Y-104825800D01*
X100314466Y-104825800D02*
X100314466Y-106855010D01*
D25*
X84565000Y-109365000D02*
X84600000Y-109400000D01*
X82475000Y-109365000D02*
X84565000Y-109365000D01*
D24*
X100314466Y-106855010D02*
X100317524Y-106858068D01*
D25*
%TO.N,Net-(ADC1-Pin_1)*%
X67800000Y-105200000D02*
X67763000Y-105237000D01*
X71318000Y-105200000D02*
X71318000Y-106726400D01*
X71318000Y-105200000D02*
X67800000Y-105200000D01*
X71318000Y-106726400D02*
X71293600Y-106750800D01*
%TO.N,Net-(C1-Pad1)*%
X73200000Y-101500000D02*
X73200000Y-103300000D01*
X73200000Y-105143000D02*
X73143000Y-105200000D01*
X73200000Y-103400000D02*
X73200000Y-105143000D01*
%TO.N,Net-(U1--)*%
X82475000Y-102210900D02*
X82475000Y-99163913D01*
X82200000Y-100200000D02*
X82475000Y-100475000D01*
X71475000Y-101500000D02*
X71475000Y-102025000D01*
X71475000Y-101500000D02*
X71475000Y-100525000D01*
X71475000Y-102025000D02*
X71200000Y-102300000D01*
X71200000Y-102300000D02*
X71200000Y-103300000D01*
X82475000Y-99163913D02*
X82475821Y-99163092D01*
X82475000Y-100475000D02*
X82475000Y-102210900D01*
X71800000Y-100200000D02*
X82200000Y-100200000D01*
X71475000Y-100525000D02*
X71800000Y-100200000D01*
%TO.N,Net-(U2-+)*%
X74600000Y-111000000D02*
X74965000Y-110635000D01*
X91775000Y-113775000D02*
X91800000Y-113800000D01*
X74600000Y-112400000D02*
X74600000Y-111000000D01*
X75975000Y-113775000D02*
X74600000Y-112400000D01*
X74965000Y-110635000D02*
X77525000Y-110635000D01*
X89433400Y-113775000D02*
X75975000Y-113775000D01*
%TO.N,Net-(WorkingElectrode1-Pin_1)*%
X82400000Y-97200000D02*
X82425000Y-97175000D01*
X79625000Y-97200000D02*
X82475821Y-97200000D01*
%TD*%
M02*
