%TF.GenerationSoftware,KiCad,Pcbnew,9.0.6*%
%TF.CreationDate,2025-12-21T15:01:31-05:00*%
%TF.ProjectId,olyntia,6f6c796e-7469-4612-9e6b-696361645f70,rev?*%
%TF.SameCoordinates,Original*%
%TF.FileFunction,Copper,L2,Bot*%
%TF.FilePolarity,Positive*%
%FSLAX46Y46*%
G04 Gerber Fmt 4.6, Leading zero omitted, Abs format (unit mm)*
G04 Created by KiCad (PCBNEW 9.0.6) date 2025-12-21 15:01:31*
%MOMM*%
%LPD*%
G01*
G04 APERTURE LIST*
%TA.AperFunction,ComponentPad*%
%ADD10R,1.700000X1.700000*%
%TD*%
%TA.AperFunction,ViaPad*%
%ADD11C,0.600000*%
%TD*%
%TA.AperFunction,Conductor*%
%ADD12C,0.300000*%
%TD*%
G04 APERTURE END LIST*
D10*
%TO.P,ADC1,1,Pin_1*%
%TO.N,Net-(ADC1-Pin_1)*%
X67763000Y-105237000D03*
%TD*%
%TO.P,GND,1,Pin_1*%
%TO.N,GND*%
X97409000Y-101066600D03*
%TD*%
%TO.P,+5V_IN,1,Pin_1*%
%TO.N,+5V*%
X97409000Y-104825800D03*
%TD*%
%TO.P,RE,1,Pin_1*%
%TO.N,Net-(RefElectrodePin1-Pin_1)*%
X71043800Y-113995200D03*
%TD*%
%TO.P,WE,1,Pin_1*%
%TO.N,Net-(WorkingElectrode1-Pin_1)*%
X79625000Y-97200000D03*
%TD*%
D11*
%TO.N,GND*%
X88188800Y-109169200D03*
X86512400Y-112572800D03*
X84836000Y-112699800D03*
X74777600Y-103505000D03*
X75742800Y-112039400D03*
X71323200Y-108102400D03*
X72669400Y-108051600D03*
X84404200Y-101777800D03*
X86029800Y-101117400D03*
X87909400Y-100203000D03*
X103657400Y-106578400D03*
X102514400Y-108127800D03*
X95377000Y-113360200D03*
%TO.N,Net-(U1-+)*%
X79857600Y-109042200D03*
X75971400Y-102260400D03*
%TD*%
D12*
%TO.N,Net-(U1-+)*%
X75971400Y-105156000D02*
X79857600Y-109042200D01*
X75971400Y-102260400D02*
X75971400Y-105156000D01*
%TD*%
%TA.AperFunction,Conductor*%
%TO.N,GND*%
G36*
X104852539Y-95008185D02*
G01*
X104898294Y-95060989D01*
X104909500Y-95112500D01*
X104909500Y-115961500D01*
X104889815Y-116028539D01*
X104837011Y-116074294D01*
X104785500Y-116085500D01*
X65394500Y-116085500D01*
X65327461Y-116065815D01*
X65281706Y-116013011D01*
X65270500Y-115961500D01*
X65270500Y-113097335D01*
X69693300Y-113097335D01*
X69693300Y-114893070D01*
X69693301Y-114893076D01*
X69699708Y-114952683D01*
X69750002Y-115087528D01*
X69750006Y-115087535D01*
X69836252Y-115202744D01*
X69836255Y-115202747D01*
X69951464Y-115288993D01*
X69951471Y-115288997D01*
X70086317Y-115339291D01*
X70086316Y-115339291D01*
X70093244Y-115340035D01*
X70145927Y-115345700D01*
X71941672Y-115345699D01*
X72001283Y-115339291D01*
X72136131Y-115288996D01*
X72251346Y-115202746D01*
X72337596Y-115087531D01*
X72387891Y-114952683D01*
X72394300Y-114893073D01*
X72394299Y-113097328D01*
X72387891Y-113037717D01*
X72337596Y-112902869D01*
X72337595Y-112902868D01*
X72337593Y-112902864D01*
X72251347Y-112787655D01*
X72251344Y-112787652D01*
X72136135Y-112701406D01*
X72136128Y-112701402D01*
X72001282Y-112651108D01*
X72001283Y-112651108D01*
X71941683Y-112644701D01*
X71941681Y-112644700D01*
X71941673Y-112644700D01*
X71941664Y-112644700D01*
X70145929Y-112644700D01*
X70145923Y-112644701D01*
X70086316Y-112651108D01*
X69951471Y-112701402D01*
X69951464Y-112701406D01*
X69836255Y-112787652D01*
X69836252Y-112787655D01*
X69750006Y-112902864D01*
X69750002Y-112902871D01*
X69699708Y-113037717D01*
X69693301Y-113097316D01*
X69693301Y-113097323D01*
X69693300Y-113097335D01*
X65270500Y-113097335D01*
X65270500Y-104339135D01*
X66412500Y-104339135D01*
X66412500Y-106134870D01*
X66412501Y-106134876D01*
X66418908Y-106194483D01*
X66469202Y-106329328D01*
X66469206Y-106329335D01*
X66555452Y-106444544D01*
X66555455Y-106444547D01*
X66670664Y-106530793D01*
X66670671Y-106530797D01*
X66805517Y-106581091D01*
X66805516Y-106581091D01*
X66812444Y-106581835D01*
X66865127Y-106587500D01*
X68660872Y-106587499D01*
X68720483Y-106581091D01*
X68855331Y-106530796D01*
X68970546Y-106444546D01*
X69056796Y-106329331D01*
X69107091Y-106194483D01*
X69113500Y-106134873D01*
X69113499Y-104339128D01*
X69107091Y-104279517D01*
X69056796Y-104144669D01*
X69056795Y-104144668D01*
X69056793Y-104144664D01*
X68970547Y-104029455D01*
X68970544Y-104029452D01*
X68855335Y-103943206D01*
X68855328Y-103943202D01*
X68720482Y-103892908D01*
X68720483Y-103892908D01*
X68660883Y-103886501D01*
X68660881Y-103886500D01*
X68660873Y-103886500D01*
X68660864Y-103886500D01*
X66865129Y-103886500D01*
X66865123Y-103886501D01*
X66805516Y-103892908D01*
X66670671Y-103943202D01*
X66670664Y-103943206D01*
X66555455Y-104029452D01*
X66555452Y-104029455D01*
X66469206Y-104144664D01*
X66469202Y-104144671D01*
X66418908Y-104279517D01*
X66412501Y-104339116D01*
X66412501Y-104339123D01*
X66412500Y-104339135D01*
X65270500Y-104339135D01*
X65270500Y-102181553D01*
X75170900Y-102181553D01*
X75170900Y-102339246D01*
X75201661Y-102493889D01*
X75201664Y-102493901D01*
X75262002Y-102639572D01*
X75262006Y-102639579D01*
X75300002Y-102696444D01*
X75320880Y-102763121D01*
X75320900Y-102765335D01*
X75320900Y-105220069D01*
X75320900Y-105220071D01*
X75320899Y-105220071D01*
X75345897Y-105345738D01*
X75345899Y-105345744D01*
X75394934Y-105464125D01*
X75466126Y-105570673D01*
X75466127Y-105570674D01*
X79040584Y-109145130D01*
X79074069Y-109206453D01*
X79074520Y-109208620D01*
X79087861Y-109275689D01*
X79087864Y-109275701D01*
X79148202Y-109421372D01*
X79148209Y-109421385D01*
X79235810Y-109552488D01*
X79235813Y-109552492D01*
X79347307Y-109663986D01*
X79347311Y-109663989D01*
X79478414Y-109751590D01*
X79478427Y-109751597D01*
X79624098Y-109811935D01*
X79624103Y-109811937D01*
X79778753Y-109842699D01*
X79778756Y-109842700D01*
X79778758Y-109842700D01*
X79936444Y-109842700D01*
X79936445Y-109842699D01*
X80091097Y-109811937D01*
X80236779Y-109751594D01*
X80367889Y-109663989D01*
X80479389Y-109552489D01*
X80566994Y-109421379D01*
X80627337Y-109275697D01*
X80658100Y-109121042D01*
X80658100Y-108963358D01*
X80658100Y-108963355D01*
X80658099Y-108963353D01*
X80627338Y-108808710D01*
X80627337Y-108808703D01*
X80627335Y-108808698D01*
X80566997Y-108663027D01*
X80566990Y-108663014D01*
X80479389Y-108531911D01*
X80479386Y-108531907D01*
X80367892Y-108420413D01*
X80367888Y-108420410D01*
X80236785Y-108332809D01*
X80236772Y-108332802D01*
X80091101Y-108272464D01*
X80091089Y-108272461D01*
X80024020Y-108259120D01*
X79962109Y-108226735D01*
X79960530Y-108225184D01*
X76658219Y-104922873D01*
X76624734Y-104861550D01*
X76621900Y-104835192D01*
X76621900Y-103927935D01*
X96058500Y-103927935D01*
X96058500Y-105723670D01*
X96058501Y-105723676D01*
X96064908Y-105783283D01*
X96115202Y-105918128D01*
X96115206Y-105918135D01*
X96201452Y-106033344D01*
X96201455Y-106033347D01*
X96316664Y-106119593D01*
X96316671Y-106119597D01*
X96451517Y-106169891D01*
X96451516Y-106169891D01*
X96458444Y-106170635D01*
X96511127Y-106176300D01*
X98306872Y-106176299D01*
X98366483Y-106169891D01*
X98501331Y-106119596D01*
X98616546Y-106033346D01*
X98702796Y-105918131D01*
X98753091Y-105783283D01*
X98759500Y-105723673D01*
X98759499Y-103927928D01*
X98753091Y-103868317D01*
X98702796Y-103733469D01*
X98702795Y-103733468D01*
X98702793Y-103733464D01*
X98616547Y-103618255D01*
X98616544Y-103618252D01*
X98501335Y-103532006D01*
X98501328Y-103532002D01*
X98366482Y-103481708D01*
X98366483Y-103481708D01*
X98306883Y-103475301D01*
X98306881Y-103475300D01*
X98306873Y-103475300D01*
X98306864Y-103475300D01*
X96511129Y-103475300D01*
X96511123Y-103475301D01*
X96451516Y-103481708D01*
X96316671Y-103532002D01*
X96316664Y-103532006D01*
X96201455Y-103618252D01*
X96201452Y-103618255D01*
X96115206Y-103733464D01*
X96115202Y-103733471D01*
X96064908Y-103868317D01*
X96058501Y-103927916D01*
X96058501Y-103927923D01*
X96058500Y-103927935D01*
X76621900Y-103927935D01*
X76621900Y-102765335D01*
X76641585Y-102698296D01*
X76642766Y-102696490D01*
X76680794Y-102639579D01*
X76741137Y-102493897D01*
X76771900Y-102339242D01*
X76771900Y-102181558D01*
X76771900Y-102181555D01*
X76771899Y-102181553D01*
X76741138Y-102026910D01*
X76741137Y-102026903D01*
X76715259Y-101964427D01*
X76680797Y-101881227D01*
X76680790Y-101881214D01*
X76593189Y-101750111D01*
X76593186Y-101750107D01*
X76481692Y-101638613D01*
X76481688Y-101638610D01*
X76350585Y-101551009D01*
X76350572Y-101551002D01*
X76204901Y-101490664D01*
X76204889Y-101490661D01*
X76050245Y-101459900D01*
X76050242Y-101459900D01*
X75892558Y-101459900D01*
X75892555Y-101459900D01*
X75737910Y-101490661D01*
X75737898Y-101490664D01*
X75592227Y-101551002D01*
X75592214Y-101551009D01*
X75461111Y-101638610D01*
X75461107Y-101638613D01*
X75349613Y-101750107D01*
X75349610Y-101750111D01*
X75262009Y-101881214D01*
X75262002Y-101881227D01*
X75201664Y-102026898D01*
X75201661Y-102026910D01*
X75170900Y-102181553D01*
X65270500Y-102181553D01*
X65270500Y-100168755D01*
X96059000Y-100168755D01*
X96059000Y-100816600D01*
X96975988Y-100816600D01*
X96943075Y-100873607D01*
X96909000Y-101000774D01*
X96909000Y-101132426D01*
X96943075Y-101259593D01*
X96975988Y-101316600D01*
X96059000Y-101316600D01*
X96059000Y-101964444D01*
X96065401Y-102023972D01*
X96065403Y-102023979D01*
X96115645Y-102158686D01*
X96115649Y-102158693D01*
X96201809Y-102273787D01*
X96201812Y-102273790D01*
X96316906Y-102359950D01*
X96316913Y-102359954D01*
X96451620Y-102410196D01*
X96451627Y-102410198D01*
X96511155Y-102416599D01*
X96511172Y-102416600D01*
X97159000Y-102416600D01*
X97159000Y-101499612D01*
X97216007Y-101532525D01*
X97343174Y-101566600D01*
X97474826Y-101566600D01*
X97601993Y-101532525D01*
X97659000Y-101499612D01*
X97659000Y-102416600D01*
X98306828Y-102416600D01*
X98306844Y-102416599D01*
X98366372Y-102410198D01*
X98366379Y-102410196D01*
X98501086Y-102359954D01*
X98501093Y-102359950D01*
X98616187Y-102273790D01*
X98616190Y-102273787D01*
X98702350Y-102158693D01*
X98702354Y-102158686D01*
X98752596Y-102023979D01*
X98752598Y-102023972D01*
X98758999Y-101964444D01*
X98759000Y-101964427D01*
X98759000Y-101316600D01*
X97842012Y-101316600D01*
X97874925Y-101259593D01*
X97909000Y-101132426D01*
X97909000Y-101000774D01*
X97874925Y-100873607D01*
X97842012Y-100816600D01*
X98759000Y-100816600D01*
X98759000Y-100168772D01*
X98758999Y-100168755D01*
X98752598Y-100109227D01*
X98752596Y-100109220D01*
X98702354Y-99974513D01*
X98702350Y-99974506D01*
X98616190Y-99859412D01*
X98616187Y-99859409D01*
X98501093Y-99773249D01*
X98501086Y-99773245D01*
X98366379Y-99723003D01*
X98366372Y-99723001D01*
X98306844Y-99716600D01*
X97659000Y-99716600D01*
X97659000Y-100633588D01*
X97601993Y-100600675D01*
X97474826Y-100566600D01*
X97343174Y-100566600D01*
X97216007Y-100600675D01*
X97159000Y-100633588D01*
X97159000Y-99716600D01*
X96511155Y-99716600D01*
X96451627Y-99723001D01*
X96451620Y-99723003D01*
X96316913Y-99773245D01*
X96316906Y-99773249D01*
X96201812Y-99859409D01*
X96201809Y-99859412D01*
X96115649Y-99974506D01*
X96115645Y-99974513D01*
X96065403Y-100109220D01*
X96065401Y-100109227D01*
X96059000Y-100168755D01*
X65270500Y-100168755D01*
X65270500Y-96302135D01*
X78274500Y-96302135D01*
X78274500Y-98097870D01*
X78274501Y-98097876D01*
X78280908Y-98157483D01*
X78331202Y-98292328D01*
X78331206Y-98292335D01*
X78417452Y-98407544D01*
X78417455Y-98407547D01*
X78532664Y-98493793D01*
X78532671Y-98493797D01*
X78667517Y-98544091D01*
X78667516Y-98544091D01*
X78674444Y-98544835D01*
X78727127Y-98550500D01*
X80522872Y-98550499D01*
X80582483Y-98544091D01*
X80717331Y-98493796D01*
X80832546Y-98407546D01*
X80918796Y-98292331D01*
X80969091Y-98157483D01*
X80975500Y-98097873D01*
X80975499Y-96302128D01*
X80969091Y-96242517D01*
X80918796Y-96107669D01*
X80918795Y-96107668D01*
X80918793Y-96107664D01*
X80832547Y-95992455D01*
X80832544Y-95992452D01*
X80717335Y-95906206D01*
X80717328Y-95906202D01*
X80582482Y-95855908D01*
X80582483Y-95855908D01*
X80522883Y-95849501D01*
X80522881Y-95849500D01*
X80522873Y-95849500D01*
X80522864Y-95849500D01*
X78727129Y-95849500D01*
X78727123Y-95849501D01*
X78667516Y-95855908D01*
X78532671Y-95906202D01*
X78532664Y-95906206D01*
X78417455Y-95992452D01*
X78417452Y-95992455D01*
X78331206Y-96107664D01*
X78331202Y-96107671D01*
X78280908Y-96242517D01*
X78274501Y-96302116D01*
X78274501Y-96302123D01*
X78274500Y-96302135D01*
X65270500Y-96302135D01*
X65270500Y-95112500D01*
X65290185Y-95045461D01*
X65342989Y-94999706D01*
X65394500Y-94988500D01*
X104785500Y-94988500D01*
X104852539Y-95008185D01*
G37*
%TD.AperFunction*%
%TD*%
M02*
